<?xml version="1.0" encoding="UTF-8" standalone="no"?>
<!-- Created with Inkscape (http://www.inkscape.org/) -->

<svg
   xmlns:dc="http://purl.org/dc/elements/1.1/"
   xmlns:cc="http://creativecommons.org/ns#"
   xmlns:rdf="http://www.w3.org/1999/02/22-rdf-syntax-ns#"
   xmlns:svg="http://www.w3.org/2000/svg"
   xmlns="http://www.w3.org/2000/svg"
   xmlns:xlink="http://www.w3.org/1999/xlink"
   xmlns:sodipodi="http://sodipodi.sourceforge.net/DTD/sodipodi-0.dtd"
   xmlns:inkscape="http://www.inkscape.org/namespaces/inkscape"
   width="210mm"
   height="297mm"
   viewBox="0 0 210 297"
   version="1.1"
   id="svg4759"
   inkscape:version="0.92.1 r15371"
   sodipodi:docname="ght_multiversions.svg">
  <defs
     id="defs4753">
    <path
       inkscape:connector-curvature="0"
       style="fill:none;fill-opacity:1;stroke:#e8e8e8;stroke-width:1.10019481;stroke-miterlimit:4;stroke-dasharray:none;stroke-opacity:0.01190479"
       d="M -236.04021,72.826401 A 188.79472,186.50758 0 0 1 -424.83493,259.33398 188.79472,186.50758 0 0 1 -613.62965,72.826401 188.79472,186.50758 0 0 1 -424.83493,-113.68119 188.79472,186.50758 0 0 1 -236.04021,72.826401 Z"
       id="path4767-5-4-1-3-8" />
    <path
       style="fill:none;stroke:none;stroke-width:2.57367516;stroke-opacity:1"
       d="M 835.93282,168.83141 A 202.12095,202.70461 0 0 0 633.81188,-33.873192 202.12095,202.70461 0 0 0 431.69093,168.83141 202.12095,202.70461 0 0 0 633.81188,371.53602 202.12095,202.70461 0 0 0 835.93282,168.83141 Z"
       id="path4125-5"
       inkscape:connector-curvature="0" />
  </defs>
  <sodipodi:namedview
     id="base"
     pagecolor="#ffffff"
     bordercolor="#666666"
     borderopacity="1.0"
     inkscape:pageopacity="0.0"
     inkscape:pageshadow="2"
     inkscape:zoom="2.8"
     inkscape:cx="194.75291"
     inkscape:cy="965.54022"
     inkscape:document-units="mm"
     inkscape:current-layer="g5758"
     showgrid="false"
     inkscape:window-width="2560"
     inkscape:window-height="1376"
     inkscape:window-x="0"
     inkscape:window-y="27"
     inkscape:window-maximized="1" />
  <metadata
     id="metadata4756">
    <rdf:RDF>
      <cc:Work
         rdf:about="">
        <dc:format>image/svg+xml</dc:format>
        <dc:type
           rdf:resource="http://purl.org/dc/dcmitype/StillImage" />
        <dc:title></dc:title>
      </cc:Work>
    </rdf:RDF>
  </metadata>
  <g
     inkscape:label="Calque 1"
     inkscape:groupmode="layer"
     id="layer1">
    <g
       id="g6120-9-1-7"
       transform="matrix(0.17892867,0,0,0.17892867,5.3111322,52.70524)">
      <g
         style="fill:none;fill-opacity:1;stroke:#e6d15a;stroke-width:3.77952766;stroke-miterlimit:4;stroke-dasharray:none;stroke-opacity:1"
         id="g4094-9-6-9-0-5"
         transform="matrix(0.45402407,0,0,0.45402407,585.5661,9.5131123)">
        <g
           style="fill:none;fill-opacity:1;stroke:#e6d15a;stroke-width:3.77952766;stroke-miterlimit:4;stroke-dasharray:none;stroke-opacity:1"
           id="g4080-7-5-0-8-4" />
      </g>
      <g
         id="g5758"
         transform="translate(-365.96167,-222.56444)">
        <circle
           inkscape:export-ydpi="211"
           inkscape:export-xdpi="211"
           transform="rotate(138.64301)"
           r="217.71428"
           cy="-544.82098"
           cx="-363.58142"
           id="path27-6-3-7-8-2"
           style="fill:#ffffff;fill-opacity:1;stroke:#e6d15f;stroke-width:9.42833805;stroke-miterlimit:4;stroke-dasharray:none;stroke-opacity:1" />
        <g
           transform="matrix(-0.92603111,-0.34939015,0.34961254,-0.92544209,-199.28295,84.852825)"
           id="g4781-2-6-7-5-3">
          <text
             transform="matrix(0.99602389,0.08954904,-0.08946356,0.99594862,-388.18132,184.25085)"
             xml:space="preserve"
             style="font-style:normal;font-variant:normal;font-weight:normal;font-stretch:normal;font-size:7.76111126px;line-height:125%;font-family:'Bitstream Vera Sans Mono';-inkscape-font-specification:'Bitstream Vera Sans Mono';letter-spacing:0px;word-spacing:0px;fill:#000000;fill-opacity:1;stroke:none;stroke-width:0.26458332px;stroke-linecap:butt;stroke-linejoin:miter;stroke-opacity:1"
             id="text4772-1-0-7-2-6"><textPath
               style="font-style:normal;font-variant:normal;font-weight:bold;font-stretch:normal;font-size:25.90254214px;font-family:'Bitstream Vera Sans Mono';-inkscape-font-specification:'Bitstream Vera Sans Mono Bold';stroke-width:0.26458332px"
               xlink:href="#path4767-5-4-1-3-8"
               id="textPath4774-2-6-3-2-4">• GLOBAL HAPKIDO TOULOUSE •</textPath></text>
        </g>
        <path
           inkscape:export-ydpi="211"
           inkscape:export-xdpi="211"
           transform="translate(1061.1412,104.92193)"
           sodipodi:nodetypes="cssccc"
           inkscape:connector-curvature="0"
           id="path4941-7-3-6-4-4"
           d="m -619.61181,4.9541296 c -29.04159,70.0871024 11.386,183.9944204 81.75627,230.4762804 70.37028,46.48185 161.15595,44.83653 229.9489,-4.16739 C -239.1137,182.2591 -205.01855,79.547228 -227.68243,2.6429906 L -425.7926,67.676992 Z"
           style="fill:none;fill-opacity:1;stroke:#e8e8e8;stroke-width:1.11148918;stroke-miterlimit:4;stroke-dasharray:none;stroke-opacity:0.01587303" />
        <g
           inkscape:export-ydpi="211"
           inkscape:export-xdpi="211"
           id="g3839-6-6-3-3-7"
           transform="matrix(1.4480833,0.96596579,-0.96499353,1.4495422,1745.2756,1062.9683)">
          <path
             inkscape:connector-curvature="0"
             id="path3734-0-1-9-8-3"
             d="m -816.48938,26.97716 a 100,100 0 0 1 -100.00012,-100.000095 50,50 0 0 0 50.00006,50.000045 50,50 0 0 0 50.00006,-50.000045 50,50 0 0 0 -0.0868,-1.733746 h 0.14833 a 50,50 0 0 1 49.93854,-48.266299 50,50 0 0 1 49.91272,48.266299 50,50 0 0 1 0.0868,1.733746 50,50 0 0 1 -0.21341,4.265888 100,100 0 0 1 -99.78615,95.734207 z"
             style="fill:#41469e;fill-opacity:1;stroke:none;stroke-width:0.23699865;stroke-opacity:1" />
          <path
             id="path3734-7-6-5-4-9-9"
             d="m -816.48992,-172.78635 a 100,100 0 0 1 100.00012,100.000098 50.000001,50.000001 0 0 0 -50.00006,-50.000048 50.000001,50.000001 0 0 0 -50.00006,50.000048 50.000001,50.000001 0 0 0 0.0868,1.73374 h -0.14833 a 50.000001,50.000001 0 0 1 -49.93854,48.266332 50.000001,50.000001 0 0 1 -49.91272,-48.266332 50.000001,50.000001 0 0 1 -0.0868,-1.73374 50.000001,50.000001 0 0 1 0.21341,-4.26589 100,100 0 0 1 99.78614,-95.734208 z"
             style="fill:#ee323a;fill-opacity:1;stroke:none;stroke-width:0.23699866;stroke-opacity:1"
             inkscape:connector-curvature="0" />
        </g>
        <circle
           inkscape:export-ydpi="211"
           inkscape:export-xdpi="211"
           r="49.444042"
           style="fill:none;fill-opacity:1;stroke:#e6d15a;stroke-width:2.72175503;stroke-miterlimit:4;stroke-dasharray:none;stroke-opacity:1"
           id="path4522-2-5-8-7-5"
           cx="633.49921"
           cy="56.950459" />
        <g
           inkscape:export-ydpi="211"
           inkscape:export-xdpi="211"
           id="g4580-6-4-1-1-3"
           transform="matrix(1.156089,0,0,1.1175634,1133.0672,52.302525)"
           style="fill:#ffffff;fill-opacity:1;stroke:#ffffff;stroke-width:2.96486998;stroke-miterlimit:4;stroke-dasharray:none;stroke-opacity:1">
          <g
             transform="translate(-466.25065,-207.81093)"
             style="fill:#ffffff;fill-opacity:1;stroke:#ffffff;stroke-width:2.96486998;stroke-miterlimit:4;stroke-dasharray:none;stroke-opacity:1"
             id="g4556-1-7-2-0-8">
            <path
               style="fill:#ffffff;fill-opacity:1;fill-rule:evenodd;stroke:#ffffff;stroke-width:2.96486998;stroke-linecap:butt;stroke-linejoin:miter;stroke-miterlimit:4;stroke-dasharray:none;stroke-opacity:1"
               d="m -18.174328,274.54936 2.93996,-1.60362 c 0,0 4.81085,0.53455 4.81085,-0.53453 0,-1.06908 -1.87088,-3.20724 -1.87088,-3.20724 v -6.94901 l 10.95805,-9.08716 c 0,0 2.93996,-1.87089 4.27631,-0.26727 1.33635,1.60362 -0.53454,2.6727 -2.40543001,5.07812 -1.87087999,2.40543 -5.87992999,10.15624 -5.07811999,12.2944 0.80181,2.13816 11.22532,-1.06908 11.22532,-1.06908 0,0 -9.08716,1.06908 -5.61266,17.90707 3.47451,16.83798 -8.28535,39.55587 -7.75081,44.09945 0.53453,4.54359 4.00904,2.40544 4.00904,2.40544 l -1.33635,3.20722 6.94901,-4.00904 1.06908,1.87089 -6.1472,7.48356 10.5948965,14.77809 v 0 c 0,0 4.3721915,-2.75098 11.0539335,-2.75098 v 0 h 1.039435 c 5.61266,0.26728 10.185885,8.01809 9.384075,12.02713 -0.80181,4.00905 -2.40543,4.54359 -2.40543,4.54359 0,0 2.6727,1.87089 3.47451,3.74176 0.80181,1.8709 -1.33635,11.75988 -1.33635,11.75988 l -3.20723,-0.53456 -1.06908,-5.61266 -4.27631,0.80182 2.13815,10.15624 c 0,0 -2.93996,8.0181 -8.01808,7.48356 -5.07812,-0.53454 -10.15624,-3.74179 -10.15624,-3.74179 l -0.26727,-8.81989 h -10.15625 c 0,0 -10.95805,-15.7689 -11.22532,-18.44159 -0.26727,-2.67269 -5.07812,-1.33636 -5.07812,-1.33636 0,0 3.47451,-5.87991 -0.8018,-9.88896 -4.27632,-4.00904 -13.36348,-3.74179 -11.75986,-10.42352 1.60361,-6.68174 1.06907,-14.96708 1.06907,-14.96708 l -2.93996,-3.47451 0.53454,-14.43255 v -8.55263 l 1.87088,1.06908 c 0,0 -1.06907,7.21627 2.13816,9.35442 3.20723,2.13815 4.81085,6.1472 4.81085,11.22532 0,5.07812 4.81085,-3.20722 4.81085,-3.20722 l 6.1472,-8.28535 2.6727,-23.787 -5.07812,-16.30344 v 0"
               id="path4547-8-6-9-1-2"
               inkscape:connector-curvature="0"
               sodipodi:nodetypes="ccscccscscscccccccccccscccccccscccsccccccccssccccc" />
          </g>
          <path
             sodipodi:nodetypes="ccccccccccscccccccccccccccccccccccccccccccccccccccccc"
             inkscape:connector-curvature="0"
             id="path4558-7-7-5-3-6-8"
             d="m -454.22354,221.75476 c 0,0 19.77795,0.13364 18.70887,-3.74177 -1.06907,-3.8754 -6.68173,-8.01809 -6.68173,-8.01809 l 17.50615,-21.24793 11.22532,-2.93996 8.28535,-0.66819 c 0,0 2.40543,-1.06907 3.20722,-2.67268 0.80182,-1.60361 -2.27179,-5.47902 -4.00901,-4.94448 -1.73726,0.53454 -6.28084,6.94902 -7.6172,7.08262 -1.33636,0.13365 -10.69078,0.26729 -10.69078,0.26729 0,0 -0.66818,-6.28083 -4.54358,-8.55263 -3.87541,-2.2718 -4.00905,-0.66817 -4.00905,-0.66817 l -1.33633,2.80633 h -2.40543 l 0.93543,-9.48807 11.35896,-10.69078 0.66818,-4.67722 -2.67269,-0.8018 -0.13364,-4.14269 -3.34087,-2.2718 0.66818,-4.14265 -1.60364,-2.40543 c 0,0 4.94449,-6.41447 9.08716,-6.1472 4.81085,-0.53456 10.42353,3.20722 9.75535,7.34991 -0.66817,4.14267 -0.66817,5.87992 -0.66817,5.87992 0,0 15.23436,6.01358 19.51069,10.42353 4.2763,4.40994 11.67021,13.81418 11.89347,21.9161 l 4.54358,0.26725 4.27633,5.87993 -0.80182,6.28084 -4.14266,2.13816 -15.90254,16.43708 h 12.56165 l 1.73725,-1.47 3.8754,0.13364 3.20726,11.09171 -0.93546,3.74176 -4.94448,0.53454 -0.8018,-5.87994 -1.87089,-2.00451 -2.27179,0.26725 -2.6727,4.54361 -25.7915,-0.93546 -0.13364,-7.48355 5.34538,-8.81989 -1.33633,-1.20272 -9.88899,2.2718 -10.4235,16.30344 -4.94448,-1.06908 -1.0691,7.21628 -17.10523,-0.53454 -3.34087,-2.40543 z"
             style="fill:#ffffff;fill-opacity:1;fill-rule:evenodd;stroke:#ffffff;stroke-width:2.96486998;stroke-linecap:butt;stroke-linejoin:miter;stroke-miterlimit:4;stroke-dasharray:none;stroke-opacity:1" />
        </g>
        <circle
           inkscape:export-ydpi="211"
           inkscape:export-xdpi="211"
           style="fill:none;fill-opacity:1;stroke:#e6d15a;stroke-width:3.83951879;stroke-miterlimit:4;stroke-dasharray:none;stroke-opacity:1"
           id="path4652-3-8-8-8-3"
           cx="632.74304"
           cy="168.71062"
           r="173.75146" />
        <circle
           inkscape:export-ydpi="211"
           inkscape:export-xdpi="211"
           style="fill:none;fill-opacity:1;stroke:none;stroke-width:1;stroke-miterlimit:4;stroke-dasharray:none;stroke-opacity:1"
           id="path5060-1-4-1-0-2"
           cx="633.38965"
           cy="165.5421"
           r="194.53354" />
        <text
           inkscape:export-ydpi="211"
           inkscape:export-xdpi="211"
           transform="matrix(-0.94505692,-0.35124968,0.35454169,-0.93628183,1173.4369,551.24415)"
           id="text4123-3"
           style="font-style:normal;font-variant:normal;font-weight:normal;font-stretch:normal;font-size:25.13367081px;line-height:1.25;font-family:'Bitstream Vera Sans Mono';-inkscape-font-specification:'Bitstream Vera Sans Mono';letter-spacing:0px;word-spacing:0px;fill:#000000;fill-opacity:1;stroke:none;stroke-width:1.47870839"
           xml:space="preserve"><textPath
             style="font-style:normal;font-variant:normal;font-weight:bold;font-stretch:normal;font-size:25.51167297px;font-family:'Bitstream Vera Sans Mono';-inkscape-font-specification:'Bitstream Vera Sans Mono Bold';stroke-width:1.47870839"
             id="textPath4128-8"
             xlink:href="#path4125-5"> GLOBAL HAPKIDO FEDERATION • 사단멉인 전세계 합기도 연맹 </textPath></text>
        <path
           inkscape:export-ydpi="211"
           inkscape:export-xdpi="211"
           inkscape:connector-curvature="0"
           id="path4953"
           d="M 835.93282,168.83141 A 202.12095,202.70461 0 0 0 633.81188,-33.873192 202.12095,202.70461 0 0 0 431.69093,168.83141 202.12095,202.70461 0 0 0 633.81188,371.53602 202.12095,202.70461 0 0 0 835.93282,168.83141 Z"
           style="fill:none;stroke:none;stroke-width:2.57367516;stroke-opacity:1" />
        <g
           inkscape:export-ydpi="211"
           inkscape:export-xdpi="211"
           style="fill:#e6d15a;fill-opacity:1"
           id="g30"
           transform="matrix(0.20076699,0,0,0.20076699,553.58575,3.3695023)">
          <path
             style="fill:#e6d15a;fill-opacity:1"
             inkscape:connector-curvature="0"
             id="path4"
             d="m 184.195,267 9.126,7.138 c 14.632,11.443 38.501,35.909 45.015,77.3 l 1.721,10.924 8.361,-7.312 c 14.038,-12.277 55.754,-44.434 116.757,-53.224 -8.792,61.003 -40.948,102.718 -53.224,116.756 l -7.313,8.361 10.924,1.721 c 41.392,6.515 65.857,30.383 77.301,45.015 l 7.137,9.126 7.138,-9.126 c 11.443,-14.632 35.908,-38.5 77.3,-45.015 l 10.924,-1.721 -7.313,-8.361 c -12.276,-14.038 -44.432,-55.753 -53.224,-116.756 61.003,8.79 102.719,40.947 116.757,53.224 l 8.361,7.312 1.72,-10.924 c 6.515,-41.391 30.384,-65.857 45.015,-77.3 l 9.127,-7.138 -9.127,-7.138 c -14.631,-11.443 -38.5,-35.908 -45.015,-77.299 l -1.72,-10.925 -8.361,7.312 c -14.038,12.277 -55.754,44.434 -116.757,53.225 8.792,-61.003 40.948,-102.719 53.224,-116.756 l 7.313,-8.362 -10.924,-1.72 c -41.392,-6.5157 -65.857,-30.3839 -77.3,-45.0157 l -7.138,-9.126 -7.137,9.126 c -11.444,14.6318 -35.909,38.5 -77.301,45.0157 l -10.924,1.72 7.313,8.362 c 12.276,14.037 44.432,55.753 53.224,116.756 -61.003,-8.791 -102.719,-40.948 -116.757,-53.225 l -8.361,-7.312 -1.721,10.925 c -6.514,41.391 -30.383,65.856 -45.015,77.299 z m 35.126,0 c 27.829,-25.798 34.255,-54.425 34.255,-54.425 40.626,34.242 103.986,41.96 135.665,43.666 -1.707,-31.679 -9.424,-95.039 -43.666,-135.666 0,0 28.626,-6.425 54.425,-34.2547 25.799,27.8297 54.425,34.2547 54.425,34.2547 -34.242,40.627 -41.959,103.987 -43.666,135.666 31.679,-1.706 95.039,-9.424 135.665,-43.666 0,0 6.426,28.627 34.255,54.425 -27.829,25.799 -34.255,54.425 -34.255,54.425 -40.626,-34.242 -103.986,-41.96 -135.665,-43.666 1.707,31.679 9.424,95.039 43.666,135.666 0,0 -28.626,6.425 -54.425,34.255 -25.799,-27.83 -54.425,-34.255 -54.425,-34.255 34.242,-40.627 41.959,-103.987 43.666,-135.666 -31.679,1.706 -95.039,9.424 -135.665,43.666 0,0 -6.426,-28.626 -34.255,-54.425 z" />
          <circle
             style="fill:#e6d15a;fill-opacity:1"
             id="circle6"
             r="18"
             cy="267"
             cx="176.77499" />
          <circle
             style="fill:#e6d15a;fill-opacity:1"
             id="circle8"
             r="18"
             cy="164.576"
             cx="237.575" />
          <circle
             style="fill:#e6d15a;fill-opacity:1"
             id="circle10"
             r="18"
             cy="369.42499"
             cx="237.575" />
          <circle
             style="fill:#e6d15a;fill-opacity:1"
             id="circle12"
             r="18"
             cy="104.575"
             cx="297.57599" />
          <circle
             style="fill:#e6d15a;fill-opacity:1"
             id="circle14"
             r="18"
             cy="429.42599"
             cx="297.57599" />
          <circle
             style="fill:#e6d15a;fill-opacity:1"
             id="circle16"
             r="18"
             cy="43.774399"
             cx="400" />
          <circle
             style="fill:#e6d15a;fill-opacity:1"
             id="circle18"
             r="18"
             cy="490.22601"
             cx="400" />
          <circle
             style="fill:#e6d15a;fill-opacity:1"
             id="circle20"
             r="18"
             cy="104.575"
             cx="502.42401" />
          <circle
             style="fill:#e6d15a;fill-opacity:1"
             id="circle22"
             r="18"
             cy="429.42599"
             cx="502.42401" />
          <circle
             style="fill:#e6d15a;fill-opacity:1"
             id="circle24"
             r="18"
             cy="164.576"
             cx="562.42499" />
          <circle
             style="fill:#e6d15a;fill-opacity:1"
             id="circle26"
             r="18"
             cy="369.42499"
             cx="562.42499" />
          <circle
             style="fill:#e6d15a;fill-opacity:1"
             id="circle28"
             r="18"
             cy="267"
             cx="623.22601" />
        </g>
      </g>
    </g>
  </g>
</svg>
